<svg width="19" height="31" viewBox="0 0 19 31" fill="none" xmlns="http://www.w3.org/2000/svg">
<path opacity="0.4" fill-rule="evenodd" clip-rule="evenodd" d="M0.333515 5.95844C0.333515 2.85186 3.3556 0.333374 7.08339 0.333374C10.8113 0.333374 13.8333 2.85186 13.8333 5.95844V22.8335C13.8333 24.9046 11.8186 26.5832 9.33332 26.5832C6.84809 26.5832 4.83336 24.9046 4.83336 22.8335V7.83346H7.08339V22.8335C7.08339 23.8689 8.09064 24.7085 9.33332 24.7085C10.576 24.7085 11.5834 23.8689 11.5834 22.8335V5.95844C11.5834 3.88733 9.56865 2.20843 7.08339 2.20843C4.59803 2.20843 2.58331 3.88733 2.58331 5.95844V22.8335C2.58331 25.9401 5.60541 28.4586 9.33332 28.4586C13.0612 28.4586 16.0833 25.9401 16.0833 22.8335V4.08345H18.3333V23.7708C17.7786 27.4694 13.9222 30.3335 9.33332 30.3335C4.74472 30.3335 0.888141 27.4694 0.333252 23.7708L0.333515 5.95844Z" fill="black"/>
</svg>
