<svg width="28" height="28" viewBox="0 0 28 28" fill="none" xmlns="http://www.w3.org/2000/svg">
<path d="M8.69394 17.0625C8.63691 16.9622 8.5606 16.8741 8.4694 16.8034C8.3782 16.7327 8.27391 16.6808 8.16255 16.6505C8.05119 16.6203 7.93494 16.6124 7.82051 16.6273C7.70608 16.6421 7.59572 16.6795 7.49578 16.7372C7.39585 16.7949 7.30831 16.8718 7.23822 16.9635C7.16812 17.0551 7.11685 17.1598 7.08736 17.2713C7.05786 17.3829 7.05073 17.4992 7.06636 17.6135C7.08199 17.7278 7.12008 17.838 7.17844 17.9375C7.86948 19.1351 8.86379 20.1296 10.0613 20.8208C11.2588 21.512 12.6173 21.8756 13.9999 21.875C15.3826 21.8753 16.7409 21.5115 17.9383 20.8203C19.1358 20.1291 20.1301 19.1349 20.8214 17.9375C20.8798 17.838 20.9179 17.7278 20.9335 17.6135C20.9492 17.4992 20.942 17.3829 20.9125 17.2713C20.883 17.1598 20.8318 17.0551 20.7617 16.9635C20.6916 16.8718 20.604 16.7949 20.5041 16.7372C20.4042 16.6795 20.2938 16.6421 20.1794 16.6273C20.0649 16.6124 19.9487 16.6203 19.8373 16.6505C19.726 16.6808 19.6217 16.7327 19.5305 16.8034C19.4393 16.8741 19.363 16.9622 19.3059 17.0625C18.7685 17.9941 17.9951 18.7676 17.0636 19.3053C16.1321 19.8429 15.0754 20.1256 13.9999 20.125C12.9244 20.1256 11.8678 19.8429 10.9363 19.3053C10.0048 18.7676 9.23139 17.9941 8.69394 17.0625V17.0625ZM12.2499 8.953V8.75C12.2499 8.28587 12.0656 7.84075 11.7374 7.51256C11.4092 7.18437 10.9641 7 10.4999 7H5.73994C5.47393 7.00001 5.21143 7.06066 4.97237 7.17734C4.73332 7.29402 4.52401 7.46366 4.36036 7.67338C4.19671 7.88309 4.08301 8.12735 4.02793 8.38759C3.97284 8.64784 3.9778 8.91721 4.04244 9.17525L4.58669 11.3488C4.77596 12.1059 5.21289 12.7781 5.82802 13.2585C6.44316 13.7389 7.20121 13.9999 7.98169 14H8.74994C9.62958 14.0002 10.477 13.6692 11.1237 13.0729C11.7703 12.4765 12.1686 11.6585 12.2394 10.7817C12.8058 10.5878 13.4013 10.4925 13.9999 10.5C14.6877 10.5 15.2949 10.612 15.7604 10.7817C15.8313 11.6585 16.2296 12.4765 16.8762 13.0729C17.5228 13.6692 18.3703 14.0002 19.2499 14H20.0164C20.7969 13.9999 21.555 13.7389 22.1701 13.2585C22.7853 12.7781 23.2222 12.1059 23.4114 11.3488L23.9557 9.17525C24.0203 8.91736 24.0253 8.64813 23.9703 8.38802C23.9153 8.12791 23.8018 7.88374 23.6383 7.67407C23.4749 7.46439 23.2658 7.29471 23.0269 7.17791C22.7881 7.06112 22.5258 7.00027 22.2599 7H17.4999C17.0358 7 16.5907 7.18437 16.2625 7.51256C15.9343 7.84075 15.7499 8.28587 15.7499 8.75V8.953C15.1768 8.81575 14.5893 8.7476 13.9999 8.75C13.3874 8.75 12.7924 8.82 12.2499 8.953Z" fill="#B1B1B1"/>
<path d="M28 14C28 17.713 26.525 21.274 23.8995 23.8995C21.274 26.525 17.713 28 14 28C10.287 28 6.72601 26.525 4.10051 23.8995C1.475 21.274 0 17.713 0 14C0 10.287 1.475 6.72601 4.10051 4.10051C6.72601 1.475 10.287 0 14 0C17.713 0 21.274 1.475 23.8995 4.10051C26.525 6.72601 28 10.287 28 14V14ZM26.25 14C26.25 10.7511 24.9594 7.63526 22.6621 5.33794C20.3647 3.04062 17.2489 1.75 14 1.75C10.7511 1.75 7.63526 3.04062 5.33794 5.33794C3.04062 7.63526 1.75 10.7511 1.75 14C1.75 17.2489 3.04062 20.3647 5.33794 22.6621C7.63526 24.9594 10.7511 26.25 14 26.25C17.2489 26.25 20.3647 24.9594 22.6621 22.6621C24.9594 20.3647 26.25 17.2489 26.25 14Z" fill="#B1B1B1"/>
</svg>
