<svg width="9" height="27" viewBox="0 0 9 27" fill="none" xmlns="http://www.w3.org/2000/svg">
<g opacity="0.3">
<path fill-rule="evenodd" clip-rule="evenodd" d="M4.90001 10.9C6.44638 10.9 7.69994 12.1536 7.69994 13.7C7.69994 15.2464 6.44638 16.5 4.90001 16.5C3.35365 16.5 2.09994 15.2464 2.09994 13.7C2.09994 12.1536 3.35365 10.9 4.90001 10.9Z" fill="black"/>
<path fill-rule="evenodd" clip-rule="evenodd" d="M4.90006 1.30001C6.44642 1.30001 7.69999 2.5536 7.69999 4.1C7.69999 5.6464 6.44642 6.89999 4.90006 6.89999C3.3537 6.89999 2.1 5.6464 2.1 4.1C2.1 2.5536 3.3537 1.30001 4.90006 1.30001Z" fill="black"/>
<path fill-rule="evenodd" clip-rule="evenodd" d="M4.90006 20.5C6.44642 20.5 7.69999 21.7536 7.69999 23.3C7.69999 24.8464 6.44642 26.1 4.90006 26.1C3.3537 26.1 2.1 24.8464 2.1 23.3C2.1 21.7536 3.3537 20.5 4.90006 20.5Z" fill="black"/>
</g>
</svg>
