<svg width="23" height="24" viewBox="0 0 23 24" fill="none" xmlns="http://www.w3.org/2000/svg">
<path opacity="0.4" fill-rule="evenodd" clip-rule="evenodd" d="M15.3512 20.8002C14.995 22.6258 13.445 24 11.5862 24C9.72744 24 8.17747 22.6258 7.8214 20.8002H0.827637L3.90146 14.4V7.99992C3.90146 3.58173 7.34212 -3.05176e-05 11.5862 -3.05176e-05C15.8305 -3.05176e-05 19.271 3.58173 19.271 7.99992V14.4L22.3448 20.8002H15.3512ZM11.5862 22.4002C12.5886 22.4002 13.4329 21.7303 13.7506 20.8002H9.42206C9.7396 21.7303 10.5839 22.4002 11.5862 22.4002ZM17.734 14.4V7.99992C17.734 4.46556 14.9816 1.60003 11.5862 1.60003C8.19086 1.60003 5.43844 4.46556 5.43844 7.99992V14.4L3.13298 19.2001H20.0393L17.734 14.4Z" fill="black"/>
</svg>
