<svg width="21" height="30" viewBox="0 0 21 30" fill="none" xmlns="http://www.w3.org/2000/svg">
<path opacity="0.4" fill-rule="evenodd" clip-rule="evenodd" d="M8.47222 29.9198C7.97005 29.9198 7.56296 29.5053 7.56296 28.994C7.56296 28.4827 7.97005 28.0682 8.47222 28.0682H9.38123V26.1747C4.89282 25.7621 1.09274 22.326 0.290283 17.8827H2.10855C2.93609 21.5926 6.39744 24.3642 10.2904 24.3642C14.1832 24.3642 17.6445 21.5926 18.472 17.8827H20.2903C19.4877 22.326 15.6876 25.7621 11.1994 26.1747V28.0682H12.1085C12.6105 28.0682 13.0176 28.4827 13.0176 28.994C13.0176 29.5053 12.6105 29.9198 12.1085 29.9198H8.47222ZM10.2904 22.5126C6.77573 22.5126 3.92668 19.6107 3.92668 16.0311V6.77207C3.92668 3.19242 6.77573 0.290283 10.2904 0.290283C13.8047 0.290283 16.6539 3.19242 16.6539 6.77207V16.0311C16.6539 19.6107 13.8047 22.5126 10.2904 22.5126ZM14.8358 6.77207C14.8358 4.21518 12.8007 2.14217 10.2904 2.14217C7.77992 2.14217 5.74483 4.21518 5.74483 6.77207V16.0311C5.74483 18.588 7.77992 20.6607 10.2904 20.6607C12.8007 20.6607 14.8358 18.588 14.8358 16.0311V6.77207Z" fill="black"/>
</svg>
